<?xml version="1.0" encoding="utf-8"?>
<!-- Generator: Adobe Illustrator 26.3.1, SVG Export Plug-In . SVG Version: 6.00 Build 0)  -->
<svg version="1.1" id="Layer_1" focusable="false" xmlns="http://www.w3.org/2000/svg" xmlns:xlink="http://www.w3.org/1999/xlink"
	 x="0px" y="0px" viewBox="0 0 221.3 45.1" style="enable-background:new 0 0 221.3 45.1;" xml:space="preserve">
<style type="text/css">
	.st0{fill:#FFFFFF;stroke:#FFFFFF;stroke-width:1.393480e-02;stroke-miterlimit:10;}
	.st1{fill:#FFFFFF;}
	.st2{fill:#FFFFFF;stroke:#FFFFFF;stroke-width:9.851906e-03;stroke-miterlimit:10;}
</style>
<g transform="matrix(1 0 0 -1 0 0)">
	<g>
		<path id="E1-MJMATHI-66" class="st0" d="M1.6-28.3C1.7-28.3,1.7-28.3,1.6-28.3c0.1,0,0.2-0.1,0.2-0.1c0.1,0,0.1,0,0.2,0
			c0.1,0,0.2,0.1,0.3,0.2c0.1,0.1,0.2,0.3,0.2,0.4c0.1,0.3,0.3,1,0.5,2.1s0.4,2.3,0.6,3.3C3.9-21.2,4-20.7,4-20.7v0H3.4
			c-0.4,0-0.7,0-0.7,0c0,0-0.1,0.1-0.1,0.1l0.1,0.4c0,0,0.1,0.1,0.1,0.1s0.3,0,0.7,0c0.4,0,0.7,0,0.7,0c0,0,0,0.3,0.1,0.7
			c0.1,0.4,0.1,0.7,0.2,0.8c0.3,1.5,1,2.3,2,2.3c0.3,0,0.6-0.1,0.9-0.3c0.2-0.2,0.3-0.4,0.3-0.7c0-0.3-0.1-0.6-0.3-0.7
			c-0.2-0.1-0.4-0.2-0.6-0.2c-0.4,0-0.6,0.2-0.6,0.6c0,0.2,0.1,0.3,0.2,0.5c0.1,0.1,0.2,0.2,0.3,0.3l0.1,0.1
			c-0.1,0.1-0.3,0.1-0.4,0.1c-0.1,0-0.2,0-0.3-0.1s-0.2-0.2-0.2-0.4c-0.1-0.3-0.1-0.6-0.2-1.1c-0.1-0.5-0.2-0.8-0.2-1.2
			C5.3-19.8,5.3-20,5.3-20s0.3,0,0.8,0c0.4,0,0.7,0,0.7,0c0.1,0,0.1,0,0.2-0.1c0,0,0-0.1,0-0.2c0-0.1-0.1-0.2-0.1-0.2
			c0,0-0.1-0.1-0.1-0.1s-0.3,0-0.8,0H5.2l-0.3-1.7c-0.4-2.3-0.8-3.7-0.9-4.3c-0.3-0.8-0.6-1.4-1-1.8c-0.3-0.3-0.7-0.4-1-0.4
			c-0.3,0-0.6,0.1-0.8,0.3s-0.4,0.4-0.4,0.8c0,0.3,0.1,0.6,0.3,0.8c0.2,0.2,0.4,0.2,0.6,0.2c0.4,0,0.6-0.2,0.6-0.6
			c0-0.2-0.1-0.3-0.2-0.5c-0.1-0.1-0.2-0.2-0.3-0.3L1.6-28.3z"/>
	</g>
	<g>
		<path id="E1-MJMAIN-28" class="st0" d="M9-22.5c0,0.6,0,1.2,0.1,1.8c0.1,0.6,0.2,1.1,0.3,1.5c0.1,0.4,0.3,0.8,0.5,1.2
			c0.2,0.4,0.4,0.7,0.5,0.9c0.1,0.2,0.3,0.5,0.6,0.7s0.4,0.4,0.5,0.5s0.2,0.2,0.3,0.3h0.2h0.1c0.1,0,0.2,0,0.2-0.1
			c0,0-0.1-0.1-0.2-0.3c-0.2-0.2-0.3-0.4-0.6-0.7c-0.2-0.3-0.5-0.7-0.7-1.2c-0.2-0.5-0.4-1.1-0.6-1.9c-0.2-0.8-0.2-1.7-0.2-2.7
			s0.1-1.9,0.2-2.7c0.2-0.8,0.3-1.4,0.6-1.9s0.5-0.9,0.7-1.2s0.4-0.6,0.6-0.7c0.2-0.2,0.2-0.3,0.2-0.3c0-0.1-0.1-0.1-0.2-0.1h0h-0.2
			l-0.4,0.3c-0.9,0.8-1.5,1.8-1.9,3C9.2-25,9-23.8,9-22.5z"/>
	</g>
	<g>
		<path id="E1-MJMATHI-6E" class="st0" d="M13.4-22c0,0.1,0,0.1,0,0.2c0,0.1,0.1,0.3,0.2,0.5c0.1,0.3,0.2,0.5,0.3,0.7
			c0.1,0.2,0.2,0.3,0.5,0.5c0.2,0.2,0.4,0.2,0.6,0.2c0.3,0,0.6-0.1,0.8-0.3c0.2-0.2,0.4-0.3,0.4-0.5c0.1-0.1,0.1-0.2,0.1-0.3
			c0,0,0,0,0,0l0.2,0.2c0.6,0.6,1.2,0.9,1.9,0.9c0.5,0,0.9-0.1,1.2-0.4c0.3-0.3,0.5-0.6,0.5-1.1c0-0.5-0.2-1.2-0.5-2.2
			c-0.4-1-0.5-1.6-0.5-1.8c0-0.2,0.1-0.4,0.2-0.4c0.1,0,0.1,0,0.1,0c0.3,0,0.5,0.2,0.7,0.5c0.2,0.3,0.4,0.7,0.5,1.1
			c0,0.1,0.1,0.1,0.3,0.1c0.2,0,0.3,0,0.3-0.1c0,0,0-0.1-0.1-0.2c-0.1-0.3-0.2-0.5-0.3-0.8c-0.1-0.3-0.3-0.5-0.6-0.8
			c-0.3-0.3-0.6-0.4-1-0.4c-0.4,0-0.8,0.1-0.9,0.4C18.1-25.5,18-25.3,18-25c0,0.2,0.2,0.7,0.5,1.7c0.3,0.9,0.5,1.6,0.5,2.1
			c0,0.5-0.2,0.8-0.6,0.8h-0.1c-0.8,0-1.5-0.5-2-1.4L16.2-22l-0.5-1.9c-0.3-1.2-0.5-1.9-0.5-2c-0.1-0.3-0.3-0.4-0.6-0.4
			c-0.1,0-0.2,0-0.3,0.1c-0.1,0.1-0.1,0.1-0.2,0.2c0,0.1,0,0.1,0,0.1c0,0.1,0.2,0.9,0.5,2.3c0.4,1.4,0.5,2.2,0.6,2.3
			c0,0,0,0.2,0,0.3c0,0.4-0.1,0.5-0.3,0.5c-0.4,0-0.6-0.5-0.9-1.4c-0.1-0.2-0.1-0.3-0.1-0.3c0-0.1-0.1-0.1-0.3-0.1h-0.2
			C13.4-22.1,13.4-22.1,13.4-22z"/>
	</g>
	<g>
		<path id="E1-MJMAIN-29" class="st0" d="M22.3-15.6L22.3-15.6c0.1,0,0.1,0,0.2,0h0.2l0.4-0.3c0.9-0.8,1.5-1.8,1.9-3
			c0.4-1.2,0.6-2.4,0.6-3.7c0-0.6,0-1.2-0.1-1.8c-0.1-0.6-0.2-1.1-0.3-1.5s-0.3-0.8-0.5-1.2c-0.2-0.4-0.4-0.7-0.5-0.9
			c-0.1-0.2-0.3-0.5-0.6-0.7c-0.3-0.3-0.4-0.4-0.4-0.5c0,0-0.2-0.1-0.3-0.3c0,0,0,0-0.1-0.1h-0.2c-0.1,0-0.1,0-0.2,0s-0.1,0-0.1,0
			s0,0.1,0,0.1c0,0,0.1,0.1,0.2,0.2c1.4,1.5,2.2,3.7,2.2,6.6s-0.7,5.1-2.2,6.6c-0.1,0.1-0.1,0.2-0.2,0.2
			C22.2-15.7,22.3-15.6,22.3-15.6z"/>
	</g>
	<g>
		<path id="E1-MJMAIN-3D" class="st0" d="M31.5-21.2c0,0.1,0.1,0.2,0.2,0.3h8.9c0.1-0.1,0.2-0.2,0.2-0.3c0-0.1-0.1-0.2-0.2-0.3
			l-4.4,0h-4.4C31.6-21.4,31.5-21.3,31.5-21.2z M31.5-23.9c0,0.1,0.1,0.2,0.2,0.3h8.9c0.1-0.1,0.2-0.2,0.2-0.3
			c0-0.1-0.1-0.2-0.2-0.3h-8.9C31.6-24.1,31.5-24,31.5-23.9z"/>
	</g>
	<g transform="translate(3264,0)">
		<g>
			<path id="E1-MJSZ4-7B" class="st0" d="M-3209.3-43.3L-3209.3-43.3l-0.5-0.1l-0.3,0.1c-0.9,0.5-1.7,1.1-2.4,1.9
				c-0.6,0.8-1,1.7-1.2,2.8c0,0.1,0,2,0,5.7l0,5.6l0,0.2c-0.1,0.8-0.3,1.6-0.8,2.4c-0.4,0.8-1,1.4-1.8,1.9c-0.1,0.1-0.2,0.1-0.2,0.2
				c0,0,0,0.1,0,0.2c0,0.1,0,0.2,0,0.3c0,0,0.1,0.1,0.2,0.1c0.8,0.5,1.4,1.2,1.8,1.9c0.4,0.8,0.7,1.6,0.8,2.3l0,0.2l0,5.6
				c0,3.7,0,5.6,0,5.7c0.3,2,1.5,3.5,3.5,4.6l0.3,0.2h0.5l0.1-0.1V-2V-2c0-0.1,0-0.1,0-0.2c0,0,0,0-0.1-0.1c0,0-0.1-0.1-0.1-0.1
				c0,0-0.1-0.1-0.3-0.1c-0.1-0.1-0.3-0.2-0.4-0.3c-0.1-0.1-0.3-0.2-0.4-0.3s-0.3-0.4-0.6-0.7c-0.3-0.3-0.5-0.7-0.7-1.2
				c-0.2-0.5-0.3-1-0.3-1.5c0-0.1,0-1.9,0-5.5c0-3.6,0-5.4,0-5.5c-0.1-1.6-0.9-2.9-2.2-4c-0.4-0.4-0.9-0.7-1.4-0.9l0.7-0.4
				c0.1-0.1,0.3-0.2,0.7-0.5c1.3-1.1,2-2.4,2.2-4c0-0.1,0-1.9,0-5.5c0-3.6,0-5.4,0-5.5c0-0.4,0.1-0.9,0.3-1.3c0.1-0.4,0.3-0.7,0.4-1
				s0.3-0.5,0.5-0.8c0.2-0.2,0.4-0.4,0.4-0.5c0.1-0.1,0.2-0.2,0.3-0.3c0.2-0.1,0.3-0.3,0.4-0.3c0.1-0.1,0.2-0.1,0.3-0.1
				s0.1,0,0.1-0.1s0-0.1,0-0.2v-0.1V-43.3z"/>
		</g>
		<g transform="translate(973,0)">
			<g transform="translate(-11,0)">
				<g transform="translate(0,883)">
					<g transform="translate(120,0)">
						<rect x="-4285.4" y="-892.8" class="st1" width="7.6" height="-0.8"/>
						<g transform="scale(0.707)">
							<path id="E1-MJMATHI-6E_00000131357543975079510030000010776870664801375666_" class="st2" d="M-4284.4-887.6
								c0,0,0,0.1,0,0.2s0.1,0.2,0.1,0.4c0.1,0.2,0.1,0.3,0.2,0.5c0.1,0.1,0.2,0.2,0.3,0.4c0.2,0.1,0.3,0.2,0.5,0.2
								c0.2,0,0.4-0.1,0.6-0.2s0.3-0.2,0.3-0.3c0-0.1,0.1-0.2,0.1-0.2c0,0,0,0,0,0l0.1,0.1c0.4,0.4,0.9,0.6,1.4,0.6
								c0.4,0,0.6-0.1,0.9-0.3c0.2-0.2,0.3-0.4,0.3-0.8c0-0.3-0.1-0.9-0.4-1.5s-0.4-1.1-0.4-1.3c0-0.2,0.1-0.3,0.2-0.3
								c0,0,0.1,0,0.1,0c0.2,0,0.4,0.2,0.5,0.4s0.3,0.5,0.3,0.8c0,0.1,0.1,0.1,0.2,0.1c0.1,0,0.2,0,0.2-0.1c0,0,0-0.1,0-0.1
								c-0.1-0.2-0.1-0.4-0.2-0.6c-0.1-0.2-0.2-0.4-0.5-0.6c-0.2-0.2-0.4-0.3-0.7-0.3c-0.3,0-0.5,0.1-0.7,0.3
								c-0.1,0.2-0.2,0.4-0.2,0.6c0,0.1,0.1,0.5,0.4,1.2c0.2,0.7,0.4,1.2,0.4,1.5c0,0.4-0.1,0.6-0.4,0.6h0c-0.6,0-1-0.3-1.4-1
								l-0.1-0.1l-0.3-1.3c-0.2-0.9-0.3-1.3-0.4-1.4c-0.1-0.2-0.2-0.3-0.4-0.3c-0.1,0-0.2,0-0.2,0.1c-0.1,0-0.1,0.1-0.1,0.1
								c0,0,0,0.1,0,0.1c0,0.1,0.1,0.6,0.4,1.6c0.2,1,0.4,1.5,0.4,1.6c0,0,0,0.1,0,0.2c0,0.3-0.1,0.4-0.2,0.4c-0.2,0-0.5-0.3-0.6-1
								c0-0.1-0.1-0.2-0.1-0.2c0,0-0.1-0.1-0.2-0.1L-4284.4-887.6C-4284.4-887.6-4284.4-887.6-4284.4-887.6z"/>
						</g>
						<g transform="scale(0.707)">
							<path id="E1-MJMAIN-32" class="st2" d="M-4283-898.3c-0.2,0-0.3,0.1-0.4,0.2s-0.2,0.3-0.2,0.4c0,0.5,0.2,0.9,0.5,1.2
								c0.3,0.3,0.8,0.5,1.3,0.5c0.6,0,1.1-0.2,1.5-0.6c0.4-0.4,0.6-0.8,0.6-1.4c0-0.3-0.1-0.6-0.2-0.8s-0.3-0.5-0.5-0.7
								s-0.4-0.4-0.8-0.7c-0.2-0.2-0.6-0.5-1-0.9l-0.6-0.6l0.7,0c1,0,1.6,0,1.6,0c0,0,0.1,0.3,0.2,0.9v0h0.4v0c0,0,0-0.3-0.1-0.9
								c-0.1-0.6-0.1-0.9-0.1-0.9v0h-3.7v0.2v0.1c0,0,0,0.1,0.1,0.1c0,0.1,0.1,0.2,0.3,0.3c0.2,0.2,0.4,0.4,0.5,0.6
								c0.1,0.1,0.2,0.2,0.3,0.4c0.2,0.2,0.3,0.3,0.3,0.4s0.2,0.2,0.3,0.3s0.2,0.3,0.3,0.3c0.1,0.1,0.1,0.2,0.2,0.3
								c0.1,0.1,0.2,0.2,0.2,0.3c0,0.1,0.1,0.2,0.1,0.3c0.1,0.1,0.1,0.2,0.1,0.3c0,0.1,0,0.2,0.1,0.3c0,0.1,0,0.2,0,0.3
								c0,0.4-0.1,0.8-0.3,1.1c-0.2,0.3-0.5,0.5-1,0.5c-0.2,0-0.4-0.1-0.6-0.2c-0.2-0.1-0.3-0.2-0.3-0.3c-0.1-0.1-0.1-0.2-0.1-0.2
								c0,0,0,0,0,0c0.1,0,0.2,0,0.4-0.1c0.1-0.1,0.2-0.2,0.2-0.5c0-0.2-0.1-0.3-0.2-0.4C-4282.7-898.2-4282.8-898.3-4283-898.3z"/>
						</g>
					</g>
				</g>
				<g transform="translate(0,-933)">
					<g>
						<path id="E1-MJMAIN-33" class="st0" d="M-4165.3,900.4c-0.3,0-0.4,0.1-0.6,0.2c-0.1,0.2-0.2,0.4-0.2,0.6c0,0.5,0.2,1,0.7,1.4
							c0.4,0.4,1,0.6,1.6,0.6c0.3,0,0.5,0,0.6,0c0.7-0.1,1.2-0.4,1.6-0.7c0.4-0.4,0.5-0.8,0.6-1.2c0-0.5-0.2-1-0.5-1.4
							c-0.3-0.5-0.8-0.8-1.3-1l0,0c0,0,0,0,0.1,0c0.1,0,0.2-0.1,0.4-0.1c0.2-0.1,0.4-0.2,0.5-0.3c0.8-0.5,1.1-1.1,1.1-2
							c0-0.7-0.3-1.4-0.9-1.9s-1.3-0.8-2.2-0.8c-0.7,0-1.4,0.2-1.9,0.6c-0.5,0.4-0.8,0.9-0.8,1.5c0,0.3,0.1,0.5,0.3,0.6
							c0.2,0.2,0.4,0.2,0.6,0.3c0.3,0,0.5-0.1,0.6-0.3c0.2-0.2,0.3-0.4,0.3-0.6c0-0.1,0-0.2,0-0.3s-0.1-0.2-0.1-0.2
							c0-0.1-0.1-0.1-0.2-0.2s-0.1-0.1-0.2-0.1c0,0-0.1,0-0.1-0.1s-0.1,0-0.1,0l-0.1,0c0.5-0.4,1-0.6,1.7-0.6c0.5,0,0.9,0.2,1.2,0.7
							c0.2,0.3,0.2,0.8,0.2,1.4v0.3c0,0.9-0.3,1.5-0.9,1.8c-0.1,0.1-0.4,0.1-0.9,0.1l-0.6,0l0,0c0,0,0,0.1,0,0.2
							c0,0.2,0,0.3,0.1,0.3c0.3,0,0.5,0,0.8,0.1c0.3,0,0.6,0.2,0.9,0.6c0.3,0.3,0.4,0.9,0.4,1.6v0.1c0,0.5-0.2,0.9-0.5,1.1
							c-0.2,0.1-0.4,0.2-0.7,0.2c-0.3,0-0.6-0.1-0.8-0.2c-0.3-0.1-0.4-0.2-0.5-0.3c-0.1-0.1-0.2-0.2-0.2-0.2h0c0,0,0.1,0,0.1,0
							s0.1,0,0.1-0.1s0.1-0.1,0.2-0.1c0.1,0,0.1-0.1,0.1-0.2c0-0.1,0.1-0.1,0.1-0.2c0-0.1,0.1-0.2,0-0.3c0-0.2-0.1-0.4-0.2-0.5
							C-4164.8,900.5-4165,900.4-4165.3,900.4z"/>
					</g>
					<g>
						<path id="E1-MJMATHI-6E_00000127741493955035046010000005886217895665147812_" class="st0" d="M-4159.8,898c0,0.1,0,0.1,0,0.2
							c0,0.1,0.1,0.3,0.2,0.5c0.1,0.3,0.2,0.5,0.3,0.7c0.1,0.2,0.2,0.3,0.5,0.5c0.2,0.2,0.4,0.2,0.6,0.2c0.3,0,0.6-0.1,0.8-0.3
							c0.2-0.2,0.4-0.3,0.4-0.5c0.1-0.1,0.1-0.2,0.1-0.3c0,0,0,0,0,0l0.2,0.2c0.6,0.6,1.2,0.9,1.9,0.9c0.5,0,0.9-0.1,1.2-0.4
							c0.3-0.3,0.5-0.6,0.5-1.1c0-0.5-0.2-1.2-0.5-2.2c-0.4-1-0.5-1.6-0.5-1.8c0-0.2,0.1-0.4,0.2-0.4c0.1,0,0.1,0,0.1,0
							c0.3,0,0.5,0.2,0.7,0.5c0.2,0.3,0.4,0.7,0.5,1.1c0,0.1,0.1,0.1,0.3,0.1c0.2,0,0.3,0,0.3-0.1c0,0,0-0.1-0.1-0.2
							c-0.1-0.3-0.2-0.5-0.3-0.8c-0.1-0.3-0.3-0.5-0.6-0.8c-0.3-0.3-0.6-0.4-1-0.4c-0.4,0-0.8,0.1-0.9,0.4c-0.2,0.3-0.3,0.5-0.3,0.8
							c0,0.2,0.2,0.7,0.5,1.7c0.3,0.9,0.5,1.6,0.5,2.1c0,0.5-0.2,0.8-0.6,0.8h-0.1c-0.8,0-1.5-0.5-2-1.4l-0.1-0.2l-0.5-1.9
							c-0.3-1.2-0.5-1.9-0.5-2c-0.1-0.3-0.3-0.4-0.6-0.4c-0.1,0-0.2,0-0.3,0.1c-0.1,0.1-0.1,0.1-0.2,0.2c0,0.1,0,0.1,0,0.1
							c0,0.1,0.2,0.9,0.5,2.3s0.5,2.2,0.6,2.3c0,0,0,0.2,0,0.3c0,0.4-0.1,0.5-0.3,0.5c-0.4,0-0.6-0.5-0.9-1.4
							c-0.1-0.2-0.1-0.3-0.1-0.3c0-0.1-0.1-0.1-0.3-0.1h-0.2C-4159.8,897.9-4159.8,897.9-4159.8,898z"/>
					</g>
					<g>
						<path id="E1-MJMAIN-2B" class="st0" d="M-4147.9,897.3c0,0,0,0.1,0,0.2c0,0.1,0.1,0.2,0.2,0.3h4.2v2.1l0,2.1
							c0.1,0.1,0.2,0.2,0.3,0.2c0.1,0,0.2-0.1,0.3-0.2v-4.2h4.2c0.1-0.1,0.2-0.2,0.2-0.3c0-0.1-0.1-0.2-0.2-0.3h-4.2V893
							c-0.1-0.1-0.2-0.2-0.3-0.2h0h0c-0.1,0-0.2,0.1-0.3,0.2v4.2h-4.2c-0.1,0.1-0.2,0.2-0.2,0.3V897.3z"/>
					</g>
					<g>
						<path id="E1-MJMAIN-31" class="st0" d="M-4131.8,902l-0.2-0.1c-0.1,0-0.3-0.1-0.6-0.1c-0.2,0-0.5-0.1-0.8-0.1h-0.3v0.6h0.3
							c0.4,0,0.8,0.1,1.2,0.2c0.4,0.1,0.6,0.2,0.8,0.3c0.1,0.1,0.3,0.2,0.4,0.3c0,0,0.1,0,0.2,0c0.1,0,0.2,0,0.2-0.1V899l0-4.2
							c0.1-0.1,0.1-0.1,0.2-0.1c0,0,0.2,0,0.3-0.1c0.2,0,0.5,0,0.9,0h0.4V894h-0.2c-0.2,0-0.9,0-2.2,0c-1.3,0-2,0-2.2,0h-0.2v0.6
							h0.4c0.2,0,0.4,0,0.5,0s0.3,0,0.3,0c0.1,0,0.2,0,0.2,0c0.1,0,0.1,0,0.1,0s0,0,0.1,0.1s0.1,0.1,0.1,0.1V902z"/>
					</g>
				</g>
			</g>
			<g transform="translate(3813,0)">
				<g transform="translate(0,883)">
					<g>
						<path id="E1-MJMAIN-69" class="st0" d="M-7936.9-888.2c0,0.3,0.1,0.5,0.3,0.6c0.2,0.1,0.4,0.2,0.6,0.2c0.2,0,0.4-0.1,0.6-0.2
							c0.2-0.1,0.2-0.3,0.2-0.6c0-0.3-0.1-0.5-0.2-0.6c-0.2-0.1-0.4-0.2-0.6-0.2s-0.4,0.1-0.6,0.2
							C-7936.8-888.7-7936.8-888.5-7936.9-888.2z M-7934.4-896.7c-0.1,0-0.6,0-1.4,0c-0.1,0-0.3,0-0.5,0c-0.2,0-0.5,0-0.7,0l-0.3,0
							h-0.1v0.6h0.2c0.3,0,0.5,0,0.7,0c0.1,0,0.1,0.1,0.2,0.2c0,0.1,0,0.3,0,0.6v1.4v1.2c0,0.5,0,0.8,0,0.9s-0.1,0.2-0.2,0.3
							c-0.1,0.1-0.3,0.1-0.7,0.1h-0.2v0.3c0,0.2,0,0.3,0,0.3l0.1,0c0.1,0,0.2,0,0.4,0c0.2,0,0.3,0,0.5,0c0.2,0,0.3,0,0.5,0
							c0.2,0,0.3,0,0.4,0c0.1,0,0.1,0,0.2,0h0v-5.3c0-0.1,0.1-0.1,0.2-0.2c0.1,0,0.2,0,0.5-0.1h0.3v-0.6H-7934.4z"/>
					</g>
					<g>
						<path id="E1-MJMAIN-66" class="st0" d="M-7930.1-896.7c-0.2,0-0.8,0-1.8,0c-1,0-1.5,0-1.6,0h-0.1v0.6h0.2c0.3,0,0.5,0,0.7,0
							c0.1,0,0.1,0.1,0.2,0.2c0,0,0,0.8,0,2.3v2.2h-1v0.6h1v0.9l0,0.9l0,0.1c0.2,0.6,0.5,1,0.9,1.3s0.9,0.4,1.3,0.5c0,0,0.1,0,0.1,0
							s0.1,0,0.2,0c0.4,0,0.7-0.1,0.9-0.4c0.2-0.2,0.3-0.5,0.3-0.7c0-0.2-0.1-0.4-0.2-0.5s-0.3-0.2-0.5-0.2s-0.4,0.1-0.5,0.2
							s-0.2,0.3-0.2,0.5c0,0.2,0.1,0.4,0.3,0.6h-0.1c0,0-0.1,0-0.2,0c-0.3,0-0.5-0.1-0.7-0.3c-0.2-0.2-0.4-0.5-0.5-0.8
							c-0.1-0.2-0.1-0.6-0.1-1.3v-0.9h1.5v-0.6h-1.5v-2.2c0-1.5,0-2.3,0-2.3c0,0,0,0,0-0.1c0,0,0,0,0.1,0s0.1,0,0.1,0s0.1,0,0.1,0
							s0.1,0,0.1,0s0.1,0,0.1,0c0.1,0,0.1,0,0.1,0c0,0,0.1,0,0.1,0c0.1,0,0.1,0,0.1,0h0.4v-0.6H-7930.1z"/>
					</g>
					<g>
						<path id="E1-MJMATHI-6E_00000113314245896657662230000016368658314595458444_" class="st0" d="M-7925.9-892.7
							c0,0.1,0,0.1,0,0.2s0.1,0.3,0.2,0.5c0.1,0.3,0.2,0.5,0.3,0.7s0.2,0.3,0.5,0.5s0.4,0.2,0.6,0.2c0.3,0,0.6-0.1,0.8-0.3
							s0.4-0.3,0.4-0.5c0.1-0.1,0.1-0.2,0.1-0.3c0,0,0,0,0,0l0.2,0.2c0.6,0.6,1.2,0.9,1.9,0.9c0.5,0,0.9-0.1,1.2-0.4
							c0.3-0.3,0.5-0.6,0.5-1.1c0-0.5-0.2-1.2-0.5-2.2c-0.4-1-0.5-1.6-0.5-1.8c0-0.2,0.1-0.4,0.2-0.4c0.1,0,0.1,0,0.1,0
							c0.3,0,0.5,0.2,0.7,0.5c0.2,0.3,0.4,0.7,0.5,1.1c0,0.1,0.1,0.1,0.3,0.1c0.2,0,0.3,0,0.3-0.1c0,0,0-0.1-0.1-0.2
							c-0.1-0.3-0.2-0.5-0.3-0.8c-0.1-0.3-0.3-0.5-0.6-0.8c-0.3-0.3-0.6-0.4-1-0.4c-0.4,0-0.8,0.1-0.9,0.4c-0.2,0.3-0.3,0.5-0.3,0.8
							c0,0.2,0.2,0.7,0.5,1.7c0.3,0.9,0.5,1.6,0.5,2.1c0,0.5-0.2,0.8-0.6,0.8h-0.1c-0.8,0-1.5-0.5-2-1.4l-0.1-0.2l-0.5-1.9
							c-0.3-1.2-0.5-1.9-0.5-2c-0.1-0.3-0.3-0.4-0.6-0.4c-0.1,0-0.2,0-0.3,0.1s-0.1,0.1-0.2,0.2c0,0.1,0,0.1,0,0.1
							c0,0.1,0.2,0.9,0.5,2.3s0.5,2.2,0.6,2.3c0,0,0,0.2,0,0.3c0,0.4-0.1,0.5-0.3,0.5c-0.4,0-0.6-0.5-0.9-1.4
							c-0.1-0.2-0.1-0.3-0.1-0.3c0-0.1-0.1-0.1-0.3-0.1h-0.2C-7925.9-892.8-7925.9-892.8-7925.9-892.7z"/>
					</g>
					<g>
						<path id="E1-MJMAIN-2261" class="st0" d="M-7913.2-890.5c0,0.1,0.1,0.2,0.2,0.3h8.9c0.1-0.1,0.2-0.2,0.2-0.3
							c0-0.1-0.1-0.2-0.2-0.3h-8.8C-7913.1-890.8-7913.2-890.7-7913.2-890.5z M-7913.2-893.4c0,0,0,0.1,0,0.2c0,0.1,0.1,0.2,0.2,0.3
							h8.9c0.1-0.1,0.2-0.2,0.2-0.3c0-0.1-0.1-0.2-0.2-0.3h-8.9c-0.1,0.1-0.2,0.2-0.2,0.3V-893.4z M-7913.2-895.9
							c0,0.1,0.1,0.2,0.2,0.3h8.8c0.1-0.1,0.2-0.1,0.2-0.3c0-0.1-0.1-0.2-0.2-0.3h-8.9C-7913.1-896.2-7913.2-896.1-7913.2-895.9z"/>
					</g>
					<g>
						<path id="E1-MJMAIN-30" class="st0" d="M-7897.9-888.6c0.5,0.8,1.2,1.1,2.1,1.1c0.4,0,0.9-0.1,1.3-0.4
							c0.4-0.2,0.8-0.7,1.1-1.3c0.3-0.8,0.5-1.8,0.5-3.2c0-1.4-0.2-2.5-0.6-3.3c-0.2-0.4-0.4-0.7-0.8-0.9s-0.6-0.4-0.8-0.4
							c-0.2-0.1-0.5-0.1-0.7-0.1c-0.2,0-0.5,0-0.7,0.1c-0.2,0.1-0.5,0.2-0.9,0.4c-0.3,0.2-0.6,0.6-0.8,0.9c-0.4,0.8-0.6,1.9-0.6,3.3
							C-7898.7-890.6-7898.4-889.4-7897.9-888.6z M-7894.8-888.4c-0.3,0.3-0.6,0.4-1,0.4c-0.4,0-0.7-0.1-1-0.4
							c-0.2-0.2-0.4-0.6-0.5-1c-0.1-0.4-0.1-1.3-0.1-2.7c0-1.5,0-2.4,0.1-2.9c0.1-0.5,0.2-0.8,0.5-1.1c0.3-0.3,0.6-0.4,1-0.4
							c0.4,0,0.7,0.1,0.9,0.4c0.3,0.3,0.4,0.7,0.5,1.2s0.1,1.4,0.1,2.8c0,1.3,0,2.2-0.1,2.7C-7894.4-889-7894.5-888.7-7894.8-888.4z
							"/>
					</g>
					<g transform="translate(3270,0)">
						<g>
							<path id="E1-MJMAIN-28_00000160171361732202638750000005030591730954284178_" class="st0" d="M-11154.8-893.2
								c0,0.6,0,1.2,0.1,1.8c0.1,0.6,0.2,1.1,0.3,1.5c0.1,0.4,0.3,0.8,0.5,1.2c0.2,0.4,0.4,0.7,0.5,0.9s0.3,0.5,0.6,0.7
								c0.3,0.3,0.4,0.4,0.5,0.5c0,0.1,0.2,0.2,0.3,0.3h0.2h0.1c0.1,0,0.2,0,0.2-0.1c0,0-0.1-0.1-0.2-0.3c-0.2-0.2-0.3-0.4-0.6-0.7
								c-0.2-0.3-0.5-0.7-0.7-1.2c-0.2-0.5-0.4-1.1-0.6-1.9s-0.2-1.7-0.2-2.7c0-1,0.1-1.9,0.2-2.7c0.2-0.8,0.3-1.4,0.6-1.9
								c0.2-0.5,0.5-0.9,0.7-1.2c0.2-0.3,0.4-0.6,0.6-0.7c0.2-0.2,0.2-0.3,0.2-0.3c0-0.1-0.1-0.1-0.2-0.1h0h-0.2l-0.4,0.3
								c-0.9,0.8-1.5,1.8-1.9,3C-11154.6-895.7-11154.8-894.5-11154.8-893.2z"/>
						</g>
						<g transform="translate(833,0)">
							<g>
								<path id="E1-MJMAIN-6D" class="st0" d="M-11983.1-896.1h0.2c0.4,0,0.6,0.1,0.7,0.2v0.1c0,0.1,0,0.2,0,0.3s0,0.3,0,0.4
									c0,0.2,0,0.3,0,0.5c0,0.2,0,0.4,0,0.6c0,0.3,0,0.6,0,0.9s0,0.6,0,0.8v0.3c0,0.2-0.1,0.3-0.2,0.3s-0.3,0.1-0.6,0.1h-0.3v0.3
									c0,0.2,0,0.3,0,0.3l0.1,0c0.1,0,0.2,0,0.4,0s0.3,0,0.5,0c0.2,0,0.3,0,0.5,0c0.2,0,0.3,0,0.4,0s0.1,0,0.2,0h0v-0.6
									c0-0.4,0-0.5,0-0.5c0,0,0,0,0.1,0.1s0.1,0.1,0.2,0.2c0.1,0.1,0.2,0.2,0.3,0.3s0.2,0.2,0.4,0.3s0.3,0.2,0.5,0.2
									s0.4,0.1,0.7,0.1c0.1,0,0.3,0,0.4,0c0.1,0,0.2,0,0.3-0.1c0.1,0,0.2-0.1,0.3-0.1c0.1,0,0.2-0.1,0.2-0.1s0.1-0.1,0.2-0.2
									c0-0.1,0.1-0.1,0.1-0.2s0.1-0.1,0.1-0.2c0-0.1,0-0.1,0.1-0.1c0,0,0-0.1,0-0.1l0-0.1l0,0.1c0,0,0.1,0.1,0.1,0.1
									c0,0,0.1,0.1,0.1,0.2c0.1,0.1,0.1,0.1,0.2,0.2c0.1,0.1,0.1,0.1,0.2,0.2c0.1,0.1,0.2,0.1,0.3,0.2s0.2,0.1,0.3,0.1
									c0.1,0,0.2,0.1,0.4,0.1c0.1,0,0.3,0,0.4,0c1.2,0,1.8-0.5,1.9-1.6c0-0.1,0-0.7,0-1.9v-1.2c0-0.4,0-0.6,0-0.6
									c0-0.1,0.1-0.1,0.2-0.1c0.2,0,0.4,0,0.7,0h0.2v-0.6h-0.1l-0.3,0c-0.2,0-0.5,0-0.7,0s-0.4,0-0.5,0c-1,0-1.5,0-1.6,0h-0.1v0.6
									h0.2c0.6,0,0.8,0.1,0.8,0.2c0,0,0,0.7,0,1.9c0,1.3,0,1.9,0,2c-0.1,0.3-0.1,0.5-0.3,0.6c-0.1,0.1-0.2,0.2-0.3,0.2
									s-0.2,0-0.4,0c-0.4,0-0.8-0.2-1.1-0.5c-0.3-0.3-0.4-0.5-0.5-0.8c-0.1-0.3-0.1-0.6-0.1-1.2v-0.9v-0.8c0-0.3,0-0.5,0-0.6
									c0-0.1,0-0.2,0-0.2c0,0,0.1-0.1,0.1-0.1c0.2,0,0.4,0,0.7,0h0.2v-0.6h-0.1l-0.3,0c-0.2,0-0.4,0-0.7,0s-0.4,0-0.5,0
									c-1,0-1.5,0-1.6,0h-0.1v0.6h0.2c0.6,0,0.8,0.1,0.8,0.2c0,0,0,0.7,0,1.9c0,1.3,0,1.9,0,2c-0.1,0.3-0.1,0.5-0.3,0.6
									s-0.2,0.2-0.3,0.2s-0.2,0-0.4,0c-0.4,0-0.8-0.2-1.1-0.5c-0.3-0.3-0.4-0.5-0.5-0.8c-0.1-0.3-0.1-0.6-0.1-1.2v-0.9v-0.8
									c0-0.3,0-0.5,0-0.6s0-0.2,0-0.2c0,0,0.1-0.1,0.1-0.1c0.2,0,0.4,0,0.7,0h0.2v-0.6h-0.1l-0.3,0c-0.2,0-0.5,0-0.7,0
									s-0.4,0-0.5,0c-1,0-1.5,0-1.6,0h-0.1v0.6H-11983.1z"/>
							</g>
							<g>
								<path id="E1-MJMAIN-6F" class="st0" d="M-11971.6-893.7c0,0.9,0.3,1.6,0.9,2.3c0.6,0.6,1.3,1,2.2,1c0.8,0,1.6-0.3,2.2-0.9
									c0.6-0.6,0.9-1.4,0.9-2.3c0-0.9-0.3-1.6-0.9-2.2c-0.6-0.6-1.3-0.9-2.2-0.9c-0.9,0-1.6,0.3-2.2,0.9
									S-11971.6-894.6-11971.6-893.7z M-11968.6-896.3c1.1,0,1.7,0.8,1.7,2.3v0.4v0.3c0,0.2,0,0.4,0,0.5c0,0.1,0,0.3-0.1,0.5
									c-0.1,0.2-0.1,0.4-0.2,0.5s-0.2,0.3-0.4,0.4s-0.4,0.2-0.7,0.3c0,0-0.1,0-0.2,0c-0.3,0-0.5-0.1-0.8-0.2
									c-0.4-0.2-0.7-0.5-0.8-0.9s-0.2-0.8-0.2-1.3v-0.3c0-0.9,0.1-1.5,0.3-1.9C-11969.7-896-11969.2-896.3-11968.6-896.3z"/>
							</g>
							<g>
								<path id="E1-MJMAIN-64" class="st0" d="M-11959.8-889.8c0,0.1,0,0.3,0,0.6s0,0.4,0,0.5c0,0.4,0,0.7-0.1,0.8
									c-0.1,0.1-0.3,0.2-0.7,0.2h-0.3v0.3c0,0.2,0,0.3,0,0.3l0.1,0c0.1,0,0.2,0,0.4,0c0.2,0,0.3,0,0.5,0c0.2,0,0.3,0,0.5,0
									c0.2,0,0.3,0,0.4,0c0.1,0,0.1,0,0.2,0h0v-4.2c0-2.8,0-4.3,0-4.3c0-0.2,0.1-0.3,0.2-0.4c0.1-0.1,0.3-0.1,0.6-0.1h0.3v-0.6
									c0,0-0.4,0-1.1-0.1s-1.1-0.1-1.1-0.1h-0.1v0.8l-0.1-0.1c-0.5-0.4-1.1-0.7-1.8-0.7c-0.7,0-1.4,0.3-1.9,0.9
									c-0.6,0.6-0.9,1.3-0.9,2.3c0,0.9,0.3,1.7,0.9,2.3c0.6,0.6,1.3,0.9,2,0.9c0.7,0,1.3-0.2,1.8-0.7V-889.8z M-11959.9-892
									c-0.4,0.6-0.9,0.9-1.6,0.9c-0.5,0-0.9-0.2-1.2-0.5c-0.3-0.3-0.4-0.6-0.5-0.9c-0.1-0.3-0.1-0.8-0.1-1.3c0-0.5,0-0.9,0.1-1.3
									c0.1-0.3,0.2-0.6,0.5-0.9c0.3-0.3,0.6-0.5,1.1-0.5c0.7,0,1.2,0.4,1.7,1.1V-892z"/>
							</g>
						</g>
						<g>
							<path id="E1-MJMAIN-32_00000173145961368810998150000004675674986104880568_" class="st0" d="M-11115.8-890.7
								c-0.2,0-0.5,0.1-0.6,0.3s-0.2,0.4-0.2,0.6c0,0.7,0.2,1.2,0.7,1.7c0.5,0.5,1.1,0.7,1.8,0.7c0.8,0,1.6-0.3,2.1-0.8
								c0.6-0.5,0.9-1.2,0.9-2c0-0.4-0.1-0.8-0.3-1.1c-0.2-0.4-0.4-0.7-0.7-0.9c-0.3-0.3-0.6-0.6-1.1-1c-0.3-0.3-0.8-0.7-1.4-1.3
								l-0.8-0.8l1.1,0c1.5,0,2.2,0,2.3,0.1c0.1,0,0.2,0.4,0.3,1.2v0h0.6v0c0,0-0.1-0.5-0.2-1.3c-0.1-0.8-0.2-1.2-0.2-1.3v0h-5.2
								v0.3v0.2c0,0.1,0,0.1,0.1,0.2c0.1,0.1,0.2,0.2,0.4,0.5c0.3,0.3,0.5,0.6,0.7,0.8c0.1,0.1,0.2,0.3,0.5,0.5
								c0.2,0.3,0.4,0.4,0.5,0.5s0.2,0.2,0.4,0.5c0.2,0.2,0.3,0.4,0.4,0.5c0.1,0.1,0.2,0.2,0.3,0.4c0.1,0.2,0.2,0.3,0.3,0.4
								s0.1,0.3,0.2,0.4c0.1,0.1,0.1,0.3,0.2,0.4c0,0.1,0.1,0.3,0.1,0.4c0,0.1,0,0.3,0,0.5c0,0.6-0.2,1.1-0.5,1.5
								c-0.3,0.4-0.8,0.6-1.4,0.6c-0.3,0-0.6-0.1-0.8-0.2c-0.2-0.2-0.4-0.3-0.5-0.5c-0.1-0.1-0.1-0.2-0.1-0.3c0,0,0,0,0.1,0
								c0.2,0,0.3-0.1,0.5-0.2s0.3-0.3,0.3-0.6c0-0.2-0.1-0.4-0.2-0.6C-11115.3-890.7-11115.5-890.7-11115.8-890.7z"/>
						</g>
						<g>
							<path id="E1-MJMAIN-29_00000120554537739328864620000013007692866378492082_" class="st0" d="M-11109.5-886.3L-11109.5-886.3
								c0.1,0,0.1,0,0.2,0h0.2l0.4-0.3c0.9-0.8,1.5-1.8,1.9-3c0.4-1.2,0.6-2.4,0.6-3.7c0-0.6,0-1.2-0.1-1.8s-0.2-1.1-0.3-1.5
								s-0.3-0.8-0.5-1.2s-0.4-0.7-0.5-0.9c-0.1-0.2-0.3-0.5-0.6-0.7c-0.3-0.3-0.4-0.4-0.4-0.5c0,0-0.2-0.1-0.3-0.3c0,0,0,0-0.1-0.1
								h-0.2c-0.1,0-0.1,0-0.2,0c0,0-0.1,0-0.1,0c0,0,0,0.1,0,0.1c0,0,0.1,0.1,0.2,0.2c1.4,1.5,2.2,3.7,2.2,6.6
								c0,2.9-0.7,5.1-2.2,6.6c-0.1,0.1-0.1,0.2-0.2,0.2C-11109.6-886.4-11109.6-886.3-11109.5-886.3z"/>
						</g>
					</g>
				</g>
				<g transform="translate(0,-933)">
					<g>
						<path id="E1-MJMAIN-69_00000124142461736836123900000014114977611084961690_" class="st0" d="M-7936.9,902.5
							c0,0.3,0.1,0.5,0.3,0.6c0.2,0.1,0.4,0.2,0.6,0.2c0.2,0,0.4-0.1,0.6-0.2c0.2-0.1,0.2-0.3,0.2-0.6c0-0.3-0.1-0.5-0.2-0.6
							c-0.2-0.1-0.4-0.2-0.6-0.2s-0.4,0.1-0.6,0.2C-7936.8,902-7936.8,902.2-7936.9,902.5z M-7934.4,894c-0.1,0-0.6,0-1.4,0
							c-0.1,0-0.3,0-0.5,0c-0.2,0-0.5,0-0.7,0l-0.3,0h-0.1v0.6h0.2c0.3,0,0.5,0,0.7,0c0.1,0,0.1,0.1,0.2,0.2c0,0.1,0,0.3,0,0.6v1.4
							v1.2c0,0.5,0,0.8,0,0.9s-0.1,0.2-0.2,0.3c-0.1,0.1-0.3,0.1-0.7,0.1h-0.2v0.3c0,0.2,0,0.3,0,0.3l0.1,0c0.1,0,0.2,0,0.4,0
							c0.2,0,0.3,0,0.5,0c0.2,0,0.3,0,0.5,0c0.2,0,0.3,0,0.4,0c0.1,0,0.1,0,0.2,0h0v-5.3c0-0.1,0.1-0.1,0.2-0.2c0.1,0,0.2,0,0.5-0.1
							h0.3V894H-7934.4z"/>
					</g>
					<g>
						<path id="E1-MJMAIN-66_00000139272026666270725000000017759864529350299065_" class="st0" d="M-7930.1,894c-0.2,0-0.8,0-1.8,0
							c-1,0-1.5,0-1.6,0h-0.1v0.6h0.2c0.3,0,0.5,0,0.7,0c0.1,0,0.1,0.1,0.2,0.2c0,0,0,0.8,0,2.3v2.2h-1v0.6h1v0.9l0,0.9l0,0.1
							c0.2,0.6,0.5,1,0.9,1.3s0.9,0.4,1.3,0.5c0,0,0.1,0,0.1,0s0.1,0,0.2,0c0.4,0,0.7-0.1,0.9-0.4c0.2-0.2,0.3-0.5,0.3-0.7
							c0-0.2-0.1-0.4-0.2-0.5s-0.3-0.2-0.5-0.2s-0.4,0.1-0.5,0.2s-0.2,0.3-0.2,0.5c0,0.2,0.1,0.4,0.3,0.6h-0.1c0,0-0.1,0-0.2,0
							c-0.3,0-0.5-0.1-0.7-0.3c-0.2-0.2-0.4-0.5-0.5-0.8c-0.1-0.2-0.1-0.6-0.1-1.3V900h1.5v-0.6h-1.5v-2.2c0-1.5,0-2.3,0-2.3
							c0,0,0,0,0-0.1c0,0,0,0,0.1,0s0.1,0,0.1,0s0.1,0,0.1,0s0.1,0,0.1,0s0.1,0,0.1,0c0.1,0,0.1,0,0.1,0c0,0,0.1,0,0.1,0
							c0.1,0,0.1,0,0.1,0h0.4V894H-7930.1z"/>
					</g>
					<g>
						<path id="E1-MJMATHI-6E_00000183224271242675532150000014103706680652755097_" class="st0" d="M-7925.9,898c0,0.1,0,0.1,0,0.2
							s0.1,0.3,0.2,0.5c0.1,0.3,0.2,0.5,0.3,0.7s0.2,0.3,0.5,0.5s0.4,0.2,0.6,0.2c0.3,0,0.6-0.1,0.8-0.3s0.4-0.3,0.4-0.5
							c0.1-0.1,0.1-0.2,0.1-0.3c0,0,0,0,0,0l0.2,0.2c0.6,0.6,1.2,0.9,1.9,0.9c0.5,0,0.9-0.1,1.2-0.4c0.3-0.3,0.5-0.6,0.5-1.1
							c0-0.5-0.2-1.2-0.5-2.2c-0.4-1-0.5-1.6-0.5-1.8c0-0.2,0.1-0.4,0.2-0.4c0.1,0,0.1,0,0.1,0c0.3,0,0.5,0.2,0.7,0.5
							c0.2,0.3,0.4,0.7,0.5,1.1c0,0.1,0.1,0.1,0.3,0.1c0.2,0,0.3,0,0.3-0.1c0,0,0-0.1-0.1-0.2c-0.1-0.3-0.2-0.5-0.3-0.8
							c-0.1-0.3-0.3-0.5-0.6-0.8c-0.3-0.3-0.6-0.4-1-0.4c-0.4,0-0.8,0.1-0.9,0.4c-0.2,0.3-0.3,0.5-0.3,0.8c0,0.2,0.2,0.7,0.5,1.7
							c0.3,0.9,0.5,1.6,0.5,2.1c0,0.5-0.2,0.8-0.6,0.8h-0.1c-0.8,0-1.5-0.5-2-1.4l-0.1-0.2l-0.5-1.9c-0.3-1.2-0.5-1.9-0.5-2
							c-0.1-0.3-0.3-0.4-0.6-0.4c-0.1,0-0.2,0-0.3,0.1s-0.1,0.1-0.2,0.2c0,0.1,0,0.1,0,0.1c0,0.1,0.2,0.9,0.5,2.3s0.5,2.2,0.6,2.3
							c0,0,0,0.2,0,0.3c0,0.4-0.1,0.5-0.3,0.5c-0.4,0-0.6-0.5-0.9-1.4c-0.1-0.2-0.1-0.3-0.1-0.3c0-0.1-0.1-0.1-0.3-0.1h-0.2
							C-7925.9,897.9-7925.9,897.9-7925.9,898z"/>
					</g>
					<g>
						<path id="E1-MJMAIN-2261_00000164491511281144404950000007544137732455779513_" class="st0" d="M-7913.2,900.2
							c0,0.1,0.1,0.2,0.2,0.3h8.9c0.1-0.1,0.2-0.2,0.2-0.3c0-0.1-0.1-0.2-0.2-0.3h-8.8C-7913.1,899.9-7913.2,900-7913.2,900.2z
							 M-7913.2,897.3c0,0,0,0.1,0,0.2c0,0.1,0.1,0.2,0.2,0.3h8.9c0.1-0.1,0.2-0.2,0.2-0.3c0-0.1-0.1-0.2-0.2-0.3h-8.9
							c-0.1,0.1-0.2,0.2-0.2,0.3V897.3z M-7913.2,894.8c0,0.1,0.1,0.2,0.2,0.3h8.8c0.1-0.1,0.2-0.1,0.2-0.3c0-0.1-0.1-0.2-0.2-0.3
							h-8.9C-7913.1,894.5-7913.2,894.6-7913.2,894.8z"/>
					</g>
					<g>
						<path id="E1-MJMAIN-31_00000041975810647587477630000018127202870313263271_" class="st0" d="M-7896.3,902l-0.2-0.1
							c-0.1,0-0.3-0.1-0.6-0.1c-0.2,0-0.5-0.1-0.8-0.1h-0.3v0.6h0.3c0.4,0,0.8,0.1,1.2,0.2c0.4,0.1,0.6,0.2,0.8,0.3
							c0.1,0.1,0.3,0.2,0.4,0.3c0,0,0.1,0,0.2,0c0.1,0,0.2,0,0.2-0.1V899l0-4.2c0.1-0.1,0.1-0.1,0.2-0.1c0,0,0.2,0,0.3-0.1
							c0.2,0,0.5,0,0.9,0h0.4V894h-0.2c-0.2,0-0.9,0-2.2,0c-1.3,0-2,0-2.2,0h-0.2v0.6h0.4c0.2,0,0.4,0,0.5,0c0.1,0,0.3,0,0.3,0
							s0.2,0,0.2,0c0.1,0,0.1,0,0.1,0s0,0,0.1,0.1s0.1,0.1,0.1,0.1V902z"/>
					</g>
					<g transform="translate(3270,0)">
						<g>
							<path id="E1-MJMAIN-28_00000001641715429202510540000000747841732739079563_" class="st0" d="M-11154.8,897.5
								c0,0.6,0,1.2,0.1,1.8c0.1,0.6,0.2,1.1,0.3,1.5c0.1,0.4,0.3,0.8,0.5,1.2c0.2,0.4,0.4,0.7,0.5,0.9s0.3,0.5,0.6,0.7
								c0.3,0.3,0.4,0.4,0.5,0.5c0,0.1,0.2,0.2,0.3,0.3h0.2h0.1c0.1,0,0.2,0,0.2-0.1c0,0-0.1-0.1-0.2-0.3c-0.2-0.2-0.3-0.4-0.6-0.7
								c-0.2-0.3-0.5-0.7-0.7-1.2c-0.2-0.5-0.4-1.1-0.6-1.9s-0.2-1.7-0.2-2.7c0-1,0.1-1.9,0.2-2.7c0.2-0.8,0.3-1.4,0.6-1.9
								c0.2-0.5,0.5-0.9,0.7-1.2c0.2-0.3,0.4-0.6,0.6-0.7c0.2-0.2,0.2-0.3,0.2-0.3c0-0.1-0.1-0.1-0.2-0.1h0h-0.2l-0.4,0.3
								c-0.9,0.8-1.5,1.8-1.9,3C-11154.6,895-11154.8,896.2-11154.8,897.5z"/>
						</g>
						<g transform="translate(833,0)">
							<g>
								<path id="E1-MJMAIN-6D_00000092439549525275460750000018042426737197465504_" class="st0" d="M-11983.1,894.6h0.2
									c0.4,0,0.6,0.1,0.7,0.2v0.1c0,0.1,0,0.2,0,0.3s0,0.3,0,0.4c0,0.2,0,0.3,0,0.5c0,0.2,0,0.4,0,0.6c0,0.3,0,0.6,0,0.9
									s0,0.6,0,0.8v0.3c0,0.2-0.1,0.3-0.2,0.3s-0.3,0.1-0.6,0.1h-0.3v0.3c0,0.2,0,0.3,0,0.3l0.1,0c0.1,0,0.2,0,0.4,0s0.3,0,0.5,0
									c0.2,0,0.3,0,0.5,0c0.2,0,0.3,0,0.4,0c0.1,0,0.1,0,0.2,0h0v-0.6c0-0.4,0-0.5,0-0.5c0,0,0,0,0.1,0.1s0.1,0.1,0.2,0.2
									c0.1,0.1,0.2,0.2,0.3,0.3s0.2,0.2,0.4,0.3s0.3,0.2,0.5,0.2s0.4,0.1,0.7,0.1c0.1,0,0.3,0,0.4,0c0.1,0,0.2,0,0.3-0.1
									c0.1,0,0.2-0.1,0.3-0.1c0.1,0,0.2-0.1,0.2-0.1s0.1-0.1,0.2-0.2c0-0.1,0.1-0.1,0.1-0.2s0.1-0.1,0.1-0.2c0-0.1,0-0.1,0.1-0.1
									c0,0,0-0.1,0-0.1l0-0.1l0,0.1c0,0,0.1,0.1,0.1,0.1c0,0,0.1,0.1,0.1,0.2c0.1,0.1,0.1,0.1,0.2,0.2c0.1,0.1,0.1,0.1,0.2,0.2
									c0.1,0.1,0.2,0.1,0.3,0.2s0.2,0.1,0.3,0.1c0.1,0,0.2,0.1,0.4,0.1c0.1,0,0.3,0,0.4,0c1.2,0,1.8-0.5,1.9-1.6
									c0-0.1,0-0.7,0-1.9v-1.2c0-0.4,0-0.6,0-0.6c0-0.1,0.1-0.1,0.2-0.1c0.2,0,0.4,0,0.7,0h0.2V894h-0.1l-0.3,0
									c-0.2,0-0.5,0-0.7,0s-0.4,0-0.5,0c-1,0-1.5,0-1.6,0h-0.1v0.6h0.2c0.6,0,0.8,0.1,0.8,0.2c0,0,0,0.7,0,1.9c0,1.3,0,1.9,0,2
									c-0.1,0.3-0.1,0.5-0.3,0.6c-0.1,0.1-0.2,0.2-0.3,0.2s-0.2,0-0.4,0c-0.4,0-0.8-0.2-1.1-0.5c-0.3-0.3-0.4-0.5-0.5-0.8
									c-0.1-0.3-0.1-0.6-0.1-1.2v-0.9v-0.8c0-0.3,0-0.5,0-0.6c0-0.1,0-0.2,0-0.2c0,0,0.1-0.1,0.1-0.1c0.2,0,0.4,0,0.7,0h0.2V894
									h-0.1l-0.3,0c-0.2,0-0.4,0-0.7,0s-0.4,0-0.5,0c-1,0-1.5,0-1.6,0h-0.1v0.6h0.2c0.6,0,0.8,0.1,0.8,0.2c0,0,0,0.7,0,1.9
									c0,1.3,0,1.9,0,2c-0.1,0.3-0.1,0.5-0.3,0.6s-0.2,0.2-0.3,0.2s-0.2,0-0.4,0c-0.4,0-0.8-0.2-1.1-0.5c-0.3-0.3-0.4-0.5-0.5-0.8
									c-0.1-0.3-0.1-0.6-0.1-1.2v-0.9v-0.8c0-0.3,0-0.5,0-0.6s0-0.2,0-0.2c0,0,0.1-0.1,0.1-0.1c0.2,0,0.4,0,0.7,0h0.2V894h-0.1
									l-0.3,0c-0.2,0-0.5,0-0.7,0s-0.4,0-0.5,0c-1,0-1.5,0-1.6,0h-0.1v0.6H-11983.1z"/>
							</g>
							<g>
								<path id="E1-MJMAIN-6F_00000116213538940849602170000015620937486944673413_" class="st0" d="M-11971.6,897
									c0,0.9,0.3,1.6,0.9,2.3c0.6,0.6,1.3,1,2.2,1c0.8,0,1.6-0.3,2.2-0.9c0.6-0.6,0.9-1.4,0.9-2.3c0-0.9-0.3-1.6-0.9-2.2
									c-0.6-0.6-1.3-0.9-2.2-0.9c-0.9,0-1.6,0.3-2.2,0.9S-11971.6,896.1-11971.6,897z M-11968.6,894.4c1.1,0,1.7,0.8,1.7,2.3v0.4
									v0.3c0,0.2,0,0.4,0,0.5c0,0.1,0,0.3-0.1,0.5c-0.1,0.2-0.1,0.4-0.2,0.5s-0.2,0.3-0.4,0.4c-0.2,0.1-0.4,0.2-0.7,0.3
									c0,0-0.1,0-0.2,0c-0.3,0-0.5-0.1-0.8-0.2c-0.4-0.2-0.7-0.5-0.8-0.9s-0.2-0.8-0.2-1.3v-0.3c0-0.9,0.1-1.5,0.3-1.9
									C-11969.7,894.7-11969.2,894.4-11968.6,894.4z"/>
							</g>
							<g>
								<path id="E1-MJMAIN-64_00000021838527979276235080000004180566397359232426_" class="st0" d="M-11959.8,900.9
									c0,0.1,0,0.3,0,0.6s0,0.4,0,0.5c0,0.4,0,0.7-0.1,0.8c-0.1,0.1-0.3,0.2-0.7,0.2h-0.3v0.3c0,0.2,0,0.3,0,0.3l0.1,0
									c0.1,0,0.2,0,0.4,0c0.2,0,0.3,0,0.5,0c0.2,0,0.3,0,0.5,0c0.2,0,0.3,0,0.4,0c0.1,0,0.1,0,0.2,0h0v-4.2c0-2.8,0-4.3,0-4.3
									c0-0.2,0.1-0.3,0.2-0.4c0.1-0.1,0.3-0.1,0.6-0.1h0.3V894c0,0-0.4,0-1.1-0.1s-1.1-0.1-1.1-0.1h-0.1v0.8l-0.1-0.1
									c-0.5-0.4-1.1-0.7-1.8-0.7c-0.7,0-1.4,0.3-1.9,0.9c-0.6,0.6-0.9,1.3-0.9,2.3c0,0.9,0.3,1.7,0.9,2.3c0.6,0.6,1.3,0.9,2,0.9
									c0.7,0,1.3-0.2,1.8-0.7V900.9z M-11959.9,898.7c-0.4,0.6-0.9,0.9-1.6,0.9c-0.5,0-0.9-0.2-1.2-0.5c-0.3-0.3-0.4-0.6-0.5-0.9
									c-0.1-0.3-0.1-0.8-0.1-1.3c0-0.5,0-0.9,0.1-1.3c0.1-0.3,0.2-0.6,0.5-0.8c0.3-0.3,0.6-0.5,1.1-0.5c0.7,0,1.2,0.4,1.7,1.1
									V898.7z"/>
							</g>
						</g>
						<g>
							<path id="E1-MJMAIN-32_00000020365029702201922640000009541066489130727359_" class="st0" d="M-11115.8,900
								c-0.2,0-0.5,0.1-0.6,0.3s-0.2,0.4-0.2,0.6c0,0.7,0.2,1.2,0.7,1.7c0.5,0.5,1.1,0.7,1.8,0.7c0.8,0,1.6-0.3,2.1-0.8
								c0.6-0.5,0.9-1.2,0.9-2c0-0.4-0.1-0.8-0.3-1.1c-0.2-0.4-0.4-0.7-0.7-0.9c-0.3-0.3-0.6-0.6-1.1-1c-0.3-0.3-0.8-0.7-1.4-1.3
								l-0.8-0.8l1.1,0c1.5,0,2.2,0,2.3,0.1c0.1,0,0.2,0.4,0.3,1.2v0h0.6v0c0,0-0.1-0.5-0.2-1.3c-0.1-0.8-0.2-1.2-0.2-1.3v0h-5.2
								v0.3v0.2c0,0.1,0,0.1,0.1,0.2c0.1,0.1,0.2,0.2,0.4,0.5c0.3,0.3,0.5,0.6,0.7,0.8c0.1,0.1,0.2,0.3,0.5,0.5
								c0.2,0.3,0.4,0.4,0.5,0.5s0.2,0.2,0.4,0.5c0.2,0.2,0.3,0.4,0.4,0.5c0.1,0.1,0.2,0.2,0.3,0.4c0.1,0.2,0.2,0.3,0.3,0.4
								s0.1,0.3,0.2,0.4c0.1,0.1,0.1,0.3,0.2,0.4s0.1,0.3,0.1,0.4c0,0.1,0,0.3,0,0.5c0,0.6-0.2,1.1-0.5,1.5
								c-0.3,0.4-0.8,0.6-1.4,0.6c-0.3,0-0.6-0.1-0.8-0.2c-0.2-0.2-0.4-0.3-0.5-0.5c-0.1-0.1-0.1-0.2-0.1-0.3c0,0,0,0,0.1,0
								c0.2,0,0.3-0.1,0.5-0.2s0.3-0.3,0.3-0.6c0-0.2-0.1-0.4-0.2-0.6C-11115.3,900-11115.5,900-11115.8,900z"/>
						</g>
						<g>
							<path id="E1-MJMAIN-29_00000147938719725599625730000005717957394842427053_" class="st0" d="M-11109.5,904.4L-11109.5,904.4
								c0.1,0,0.1,0,0.2,0h0.2l0.4-0.3c0.9-0.8,1.5-1.8,1.9-3s0.6-2.4,0.6-3.7c0-0.6,0-1.2-0.1-1.8s-0.2-1.1-0.3-1.5
								s-0.3-0.8-0.5-1.2s-0.4-0.7-0.5-0.9c-0.1-0.2-0.3-0.5-0.6-0.7c-0.3-0.3-0.4-0.4-0.4-0.5c0,0-0.2-0.1-0.3-0.3c0,0,0,0-0.1-0.1
								h-0.2c-0.1,0-0.1,0-0.2,0c0,0-0.1,0-0.1,0c0,0,0,0.1,0,0.1c0,0,0.1,0.1,0.2,0.2c1.4,1.5,2.2,3.7,2.2,6.6
								c0,2.9-0.7,5.1-2.2,6.6c-0.1,0.1-0.1,0.2-0.2,0.2C-11109.6,904.3-11109.6,904.4-11109.5,904.4z"/>
						</g>
					</g>
					<g>
						<path id="E1-MJMAIN-2E" class="st0" d="M-7833.8,894.8c0,0.2,0.1,0.4,0.2,0.6c0.2,0.2,0.4,0.3,0.6,0.3c0.2,0,0.4-0.1,0.6-0.2
							c0.2-0.1,0.3-0.3,0.3-0.6c0-0.2-0.1-0.4-0.2-0.6c-0.2-0.2-0.4-0.3-0.6-0.3c-0.2,0-0.4,0.1-0.6,0.2
							C-7833.7,894.4-7833.8,894.6-7833.8,894.8z"/>
					</g>
				</g>
			</g>
		</g>
	</g>
</g>
</svg>
